<svg width="40" height="40" viewBox="0 0 40 40" fill="none" xmlns="http://www.w3.org/2000/svg">
<g clip-path="url(#clip0_2002_405)">
<path d="M20 0C14.6969 0 9.60625 2.10844 5.85938 5.85781C2.10866 9.6087 0.00107328 14.6956 0 20C0 25.3022 2.10938 30.3928 5.85938 34.1422C9.60625 37.8916 14.6969 40 20 40C25.3031 40 30.3937 37.8916 34.1406 34.1422C37.8906 30.3928 40 25.3022 40 20C40 14.6978 37.8906 9.60719 34.1406 5.85781C30.3937 2.10844 25.3031 0 20 0Z" fill="#6B6B6B"/>
<path d="M30.0758 27.999H27.5574C26.6051 27.999 26.3181 27.265 24.6109 25.6397C23.1189 24.2716 22.4888 24.1015 22.1113 24.1015C21.5893 24.1015 21.447 24.238 21.447 24.9215V27.076C21.447 27.6588 21.2483 28 19.6482 28C18.0958 27.9008 16.5904 27.4521 15.2559 26.6909C13.9215 25.9297 12.7962 24.8777 11.9728 23.6217C10.0184 21.3061 8.65818 18.5891 8 15.6861C8 15.327 8.14346 15.0015 8.86299 15.0015H11.3791C12.0258 15.0015 12.2587 15.2756 12.5125 15.9087C13.7341 19.3295 15.8188 22.305 16.6652 22.305C16.9897 22.305 17.1309 22.1685 17.1309 21.3989V17.8753C17.0239 16.2678 16.1267 16.1323 16.1267 15.5507C16.138 15.3972 16.2118 15.254 16.3324 15.1515C16.4529 15.0489 16.6107 14.9951 16.7723 15.0015H20.7275C21.2682 15.0015 21.447 15.2577 21.447 15.873V20.6293C21.447 21.1427 21.6787 21.3128 21.8421 21.3128C22.1665 21.3128 22.4159 21.1427 23.0107 20.5779C24.2852 19.0981 25.3269 17.4499 26.1029 15.6851C26.182 15.4729 26.332 15.2913 26.5299 15.168C26.7279 15.0448 26.9628 14.9867 27.1988 15.0026H29.716C30.4709 15.0026 30.6309 15.3617 30.4709 15.874C29.5551 17.8252 28.4222 19.6774 27.0917 21.3989C26.8203 21.7927 26.7121 21.9974 27.0917 22.4594C27.3411 22.8185 28.224 23.5198 28.8166 24.1866C29.6796 25.0055 30.3958 25.9526 30.9377 26.9899C31.154 27.6577 30.7942 27.999 30.0758 27.999Z" fill="#FCFCFC"/>
</g>
<defs>
<clipPath id="clip0_2002_405">
<rect width="40" height="40" fill="white"/>
</clipPath>
</defs>
</svg>
