<svg width="40" height="40" viewBox="0 0 40 40" fill="none" xmlns="http://www.w3.org/2000/svg">
<g clip-path="url(#clip0_2002_410)">
<path d="M20 0C14.6969 0 9.60625 2.10844 5.85938 5.85781C2.10866 9.6087 0.00107328 14.6956 0 20C0 25.3022 2.10938 30.3928 5.85938 34.1422C9.60625 37.8916 14.6969 40 20 40C25.3031 40 30.3937 37.8916 34.1406 34.1422C37.8906 30.3928 40 25.3022 40 20C40 14.6978 37.8906 9.60719 34.1406 5.85781C30.3937 2.10844 25.3031 0 20 0Z" fill="#FCFCFC"/>
<path d="M17.0833 23.1248L23.3546 19.4998L17.0833 15.8748V23.1248ZM31.0517 13.6636C31.2087 14.2315 31.3175 14.9928 31.39 15.9594C31.4746 16.9261 31.5108 17.7598 31.5108 18.4848L31.5833 19.4998C31.5833 22.1461 31.39 24.0915 31.0517 25.3361C30.7496 26.4236 30.0487 27.1244 28.9612 27.4265C28.3933 27.5836 27.3542 27.6923 25.7592 27.7648C24.1883 27.8494 22.7504 27.8857 21.4212 27.8857L19.5 27.9582C14.4371 27.9582 11.2833 27.7648 10.0387 27.4265C8.95124 27.1244 8.25041 26.4236 7.94832 25.3361C7.79124 24.7682 7.68249 24.0069 7.60999 23.0403C7.52541 22.0736 7.48916 21.2398 7.48916 20.5148L7.41666 19.4998C7.41666 16.8536 7.60999 14.9082 7.94832 13.6636C8.25041 12.5761 8.95124 11.8753 10.0387 11.5732C10.6067 11.4161 11.6458 11.3073 13.2408 11.2348C14.8117 11.1503 16.2496 11.114 17.5787 11.114L19.5 11.0415C24.5629 11.0415 27.7167 11.2348 28.9612 11.5732C30.0487 11.8753 30.7496 12.5761 31.0517 13.6636Z" fill="#BA0000"/>
</g>
<defs>
<clipPath id="clip0_2002_410">
<rect width="40" height="40" fill="white"/>
</clipPath>
</defs>
</svg>
