<svg width="28" height="28" viewBox="0 0 28 28" fill="none" xmlns="http://www.w3.org/2000/svg">
<path fill-rule="evenodd" clip-rule="evenodd" d="M20.07 27.51C18.15 27.4393 12.7087 26.6873 7.00998 20.99C1.31265 15.2913 0.561984 9.85131 0.489984 7.92998C0.383317 5.00198 2.62598 2.15798 5.21665 1.04731C5.52862 0.9126 5.87025 0.861312 6.20802 0.898478C6.5458 0.935645 6.8681 1.05999 7.14332 1.25931C9.27665 2.81398 10.7487 5.16598 12.0127 7.01531C12.2908 7.42162 12.4097 7.91604 12.3467 8.40437C12.2838 8.89271 12.0434 9.34081 11.6713 9.66331L9.06998 11.5953C8.94431 11.6861 8.85584 11.8194 8.82102 11.9704C8.7862 12.1215 8.80739 12.28 8.88065 12.4166C9.46998 13.4873 10.518 15.082 11.718 16.282C12.918 17.482 14.5887 18.5993 15.734 19.2553C15.8776 19.3359 16.0466 19.3585 16.2063 19.3183C16.366 19.2781 16.5043 19.1783 16.5927 19.0393L18.286 16.462C18.5973 16.0484 19.0566 15.7714 19.5676 15.6889C20.0786 15.6064 20.6017 15.7248 21.0273 16.0193C22.9033 17.318 25.0927 18.7646 26.6953 20.8166C26.9108 21.0939 27.0479 21.4239 27.0922 21.7722C27.1366 22.1205 27.0865 22.4743 26.9473 22.7966C25.8313 25.4006 23.0073 27.618 20.07 27.51Z" fill="white"/>
</svg>
