<svg width="40" height="40" viewBox="0 0 40 40" fill="none" xmlns="http://www.w3.org/2000/svg">
<g clip-path="url(#clip0_2002_402)">
<path d="M20 0C14.6969 0 9.60625 2.10844 5.85938 5.85781C2.10866 9.6087 0.00107328 14.6956 0 20C0 25.3022 2.10938 30.3928 5.85938 34.1422C9.60625 37.8916 14.6969 40 20 40C25.3031 40 30.3937 37.8916 34.1406 34.1422C37.8906 30.3928 40 25.3022 40 20C40 14.6978 37.8906 9.60719 34.1406 5.85781C30.3937 2.10844 25.3031 0 20 0Z" fill="#6B6B6B"/>
<path d="M10.2372 19.888C15.07 17.6302 18.2918 16.1417 19.9027 15.4224C24.5076 13.3689 25.4632 13.0122 26.0874 13.0001C26.2247 12.9977 26.5303 13.0341 26.7297 13.207C26.8954 13.3529 26.9421 13.5501 26.9654 13.6886C26.9861 13.8269 27.0146 14.1422 26.9913 14.3883C26.7426 17.1994 25.6627 24.021 25.1136 27.1696C24.8831 28.5018 24.4247 28.9485 23.9818 28.9921C23.0184 29.0871 22.288 28.3099 21.3557 27.6546C19.8975 26.6288 19.074 25.9904 17.6573 24.9896C16.0205 23.8329 17.0823 23.1971 18.0147 22.1582C18.2581 21.8863 22.5004 17.7488 22.5807 17.3735C22.591 17.3266 22.6014 17.1516 22.503 17.0594C22.4072 16.9669 22.2647 16.9985 22.1611 17.0235C22.0135 17.0591 19.6852 18.7113 15.1684 21.9799C14.508 22.4671 13.9097 22.7046 13.371 22.6921C12.7805 22.6785 11.641 22.3332 10.7941 22.0382C9.7581 21.6763 8.93192 21.4849 9.00443 20.8702C9.04069 20.5502 9.45249 20.2227 10.2372 19.888Z" fill="#FCFCFC"/>
</g>
<defs>
<clipPath id="clip0_2002_402">
<rect width="40" height="40" fill="white"/>
</clipPath>
</defs>
</svg>
