<svg width="231" height="28" viewBox="0 0 231 28" fill="none" xmlns="http://www.w3.org/2000/svg">
<g clip-path="url(#clip0_2002_177)">
<path d="M100.819 13.987C100.819 9.59949 100.819 5.21085 100.819 0.82339C100.819 0.291865 101.094 0.0261022 101.645 0.0261022C108.537 0.0261022 115.428 0.0118657 122.32 0.0344081C124.508 0.0415268 126.683 0.204068 128.739 1.07492C133.113 2.92576 134.388 8.83424 131.141 12.2322C130.811 12.5775 130.424 12.8539 130.036 13.1303C129.87 13.2478 129.555 13.2739 129.589 13.5361C129.62 13.7746 129.92 13.7888 130.11 13.8754C131.023 14.2895 131.851 14.8163 132.501 15.5922C134.105 17.5071 134.379 19.74 133.937 22.0761C133.42 24.8097 131.551 26.3236 129.013 27.1897C127.062 27.8553 125.04 27.9573 123.019 27.9644C115.869 27.9929 108.719 27.968 101.568 27.9881C100.955 27.9893 100.803 27.8007 100.806 27.2098C100.829 22.8022 100.819 18.3946 100.819 13.987ZM116.333 21.3203C118.457 21.3203 120.582 21.3203 122.707 21.3203C123.245 21.3203 123.778 21.2824 124.295 21.1246C125.25 20.8339 125.88 20.001 125.825 19.1076C125.766 18.1549 125.069 17.4015 124.056 17.2307C123.685 17.1678 123.306 17.1298 122.929 17.1298C118.482 17.1227 114.035 17.1286 109.588 17.118C109.198 17.118 109.059 17.2508 109.065 17.6341C109.08 18.6414 109.096 19.6498 109.059 20.6571C109.04 21.1697 109.183 21.3393 109.72 21.3322C111.924 21.3025 114.128 21.3203 116.332 21.3203H116.333ZM115.958 10.7041V10.6993C117.984 10.6993 120.009 10.6993 122.035 10.6993C122.175 10.6993 122.313 10.691 122.453 10.6827C123.803 10.5997 124.622 9.85102 124.608 8.71678C124.593 7.55407 123.736 6.79 122.293 6.78051C118.042 6.75203 113.793 6.76627 109.543 6.75203C109.167 6.75085 109.061 6.89441 109.067 7.24203C109.081 8.21017 109.092 9.17949 109.062 10.1476C109.049 10.5949 109.198 10.7207 109.643 10.7159C111.748 10.6946 113.853 10.7064 115.959 10.7064L115.958 10.7041Z" fill="#343434"/>
<path d="M153.162 27.9917C148.415 27.9917 143.667 27.9834 138.921 28.0036C138.369 28.0059 138.177 27.892 138.178 27.2953C138.198 18.4195 138.198 9.54373 138.178 0.667966C138.177 0.0830511 138.374 -0.0118643 138.891 -0.0106779C148.425 0.00118652 157.96 -0.0023744 167.494 -0.00118796C168.286 -0.00118796 168.287 0.00118681 168.287 0.783051C168.287 2.64102 168.268 4.50017 168.299 6.35695C168.308 6.90508 168.145 7.06051 167.592 7.05932C160.799 7.04152 154.006 7.04746 147.212 7.04746C146.679 7.04746 146.413 7.31994 146.413 7.86492C146.413 8.69542 146.43 9.52593 146.406 10.3553C146.395 10.7242 146.525 10.831 146.882 10.8239C147.815 10.8049 148.748 10.818 149.683 10.818C155.324 10.818 160.965 10.8263 166.606 10.8049C167.144 10.8025 167.266 10.9473 167.256 11.4634C167.221 13.1434 167.208 14.8246 167.26 16.5034C167.281 17.1429 167.054 17.2378 166.486 17.2354C160.05 17.2164 153.614 17.2319 147.178 17.2105C146.593 17.2081 146.357 17.3268 146.401 17.9544C146.457 18.7612 146.444 19.5763 146.404 20.3842C146.379 20.8908 146.561 21.0095 147.047 21.0083C153.881 20.9941 160.713 21.0083 167.547 20.9834C168.159 20.981 168.317 21.1412 168.303 21.7392C168.264 23.5959 168.268 25.4551 168.302 27.313C168.313 27.8778 168.121 28.0036 167.586 28.0012C162.779 27.9822 157.972 27.9905 153.166 27.9905L153.162 27.9917Z" fill="#343434"/>
<path d="M172.364 13.9526C172.364 9.56628 172.374 5.18001 172.352 0.793738C172.35 0.207636 172.501 0.0130599 173.118 0.0154328C178.895 0.0379751 184.672 0.00831442 190.45 0.0379754C192.935 0.0510263 195.404 0.257467 197.759 1.16153C201.606 2.63984 203.701 5.62374 203.835 9.74069C203.9 11.6983 203.763 13.6073 202.931 15.4178C201.904 17.6507 200.115 19.04 197.883 19.931C195.924 20.7129 193.861 21.0178 191.773 21.0475C188.24 21.0973 184.705 21.0688 181.172 21.0498C180.755 21.0475 180.639 21.1376 180.645 21.5659C180.671 23.482 180.64 25.3993 180.667 27.3154C180.675 27.8398 180.505 27.9905 179.986 27.9858C177.683 27.9609 175.38 27.9573 173.077 27.9881C172.48 27.9965 172.351 27.7781 172.354 27.23C172.372 22.8046 172.364 18.378 172.364 13.9526ZM185.944 14.0973C186.956 14.0973 187.968 14.0914 188.979 14.0985C190.388 14.1092 191.803 14.1127 193.171 13.7414C194.318 13.4293 195.231 12.8017 195.501 11.5488C195.773 10.2912 195.666 9.1012 194.688 8.14611C193.709 7.18747 192.414 7.03797 191.151 7.0178C187.838 6.96441 184.526 7.00832 181.213 6.99052C180.759 6.98815 180.642 7.13645 180.647 7.57069C180.668 9.54492 180.67 11.5192 180.647 13.4922C180.641 13.9549 180.764 14.1139 181.244 14.1068C182.811 14.0807 184.378 14.0973 185.945 14.0973H185.944Z" fill="#343434"/>
<path d="M29.4269 13.9893C29.4269 9.58288 29.4376 5.17643 29.4138 0.769992C29.4102 0.176771 29.5663 -0.0023802 30.1778 -7.31841e-06C35.9755 0.0225351 41.7731 -0.00831096 47.5708 0.0237229C50.1764 0.0379602 52.7605 0.272873 55.2052 1.30745C58.0933 2.52948 59.9503 4.6105 60.6023 7.69169C61.1065 10.0752 61.0755 12.4505 60.2364 14.7605C59.296 17.3505 57.3722 18.9617 54.8476 19.9381C52.4959 20.8469 50.0309 21.0593 47.541 21.0759C44.4633 21.0961 41.3857 21.0925 38.3081 21.0688C37.8003 21.0652 37.6811 21.2183 37.6883 21.7036C37.7157 23.5603 37.6835 25.4183 37.7097 27.2751C37.7169 27.7852 37.581 27.9644 37.0446 27.9573C34.7215 27.9312 32.3984 27.93 30.0753 27.9573C29.5282 27.9632 29.415 27.7651 29.4162 27.2668C29.4317 22.8402 29.4257 18.4147 29.4257 13.9881L29.4269 13.9893ZM43.387 6.98694C41.6801 6.98694 39.9733 6.99881 38.2676 6.97864C37.823 6.97389 37.6871 7.11508 37.6919 7.55762C37.7133 9.49271 37.7241 11.429 37.6871 13.3641C37.6752 13.9502 37.8611 14.0973 38.4261 14.0925C41.6015 14.0688 44.7768 14.0842 47.9522 14.0783C48.7687 14.0771 49.5792 13.981 50.3587 13.7354C51.5852 13.3498 52.447 12.5964 52.6139 11.2593C52.7748 9.96965 52.6175 8.76067 51.4815 7.90406C50.4994 7.16254 49.3229 7.03203 48.1524 6.99881C46.5659 6.95372 44.9771 6.98813 43.3894 6.98694H43.387Z" fill="#BA0000"/>
<path d="M70.2512 27.9514C70.5194 27.5504 70.7149 27.2597 70.9103 26.9678C72.3609 24.7954 73.8127 22.6231 75.2598 20.4495C75.3432 20.3237 75.5196 20.2015 75.4457 20.0426C75.3647 19.8693 75.1501 19.9405 75.0166 19.9678C73.5124 20.2703 72.7149 19.5288 71.914 18.3115C68.0115 12.3758 64.0006 6.51001 60.0302 0.619335C59.9229 0.459166 59.8264 0.291876 59.7227 0.124588C59.8979 -0.0379546 60.0839 0.0367912 60.2483 0.0356047C62.9493 0.0296725 65.6515 0.0403511 68.3524 0.021368C68.7589 0.0189951 68.9901 0.147131 69.2142 0.481708C72.293 5.08984 75.3861 9.6873 78.4756 14.2871C78.776 14.734 79.0812 14.7261 79.3911 14.2634C82.4615 9.67425 85.5356 5.08747 88.5965 0.491201C88.817 0.160184 89.0423 0.0178112 89.4547 0.020184C92.3106 0.0403535 95.1677 0.0308616 98.0332 0.0308616C98.0642 0.302556 97.8711 0.447301 97.7578 0.615776C91.7909 9.55205 85.8157 18.4824 79.8547 27.4234C79.5973 27.8102 79.3339 27.9668 78.8583 27.9632C76.0405 27.9383 73.2227 27.9514 70.2524 27.9514H70.2512Z" fill="#BA0000"/>
<path d="M0.118016 19.9488C-0.00356254 19.8124 0.0476918 19.6475 0.0476918 19.4944C0.0441159 16.6292 0.0536517 13.7651 0.0357724 10.8998C0.0333885 10.5214 0.147816 10.3529 0.504209 10.2248C7.77272 7.6134 15.0389 4.99611 22.299 2.35866C22.8402 2.16171 22.8712 2.34204 22.8688 2.79526C22.8545 5.48255 22.8497 8.16984 22.8735 10.8559C22.8771 11.2949 22.721 11.4681 22.3324 11.6117C19.2691 12.7483 16.2129 13.9051 13.1544 15.0583C13.0638 15.0927 12.9792 15.1437 12.8921 15.1876C12.6502 15.2671 12.4046 15.3383 12.1663 15.4273C8.15057 16.9329 4.13489 18.4409 0.119209 19.9488H0.118016Z" fill="#343434"/>
<path d="M230.964 10.4252C231.075 10.6091 231.024 10.812 231.024 11.0054C231.027 13.8113 231.019 16.6161 231.035 19.4208C231.037 19.8242 230.949 20.0319 230.526 20.1837C223.311 22.769 216.105 25.3756 208.896 27.9774C208.451 28.1388 208.227 27.9889 208.227 27.5278C208.227 24.92 208.242 22.3122 208.213 19.7044C208.207 19.1741 208.337 18.9213 208.871 18.728C211.812 17.659 214.733 16.5378 217.661 15.4332C217.844 15.3644 218.021 15.2742 218.2 15.1935C218.424 15.1224 218.651 15.0595 218.872 14.9764C222.903 13.4602 226.934 11.9427 230.965 10.4241L230.964 10.4252Z" fill="#343434"/>
<path d="M0.118004 19.9488C4.13369 18.4409 8.14937 16.9329 12.165 15.4273C12.4034 15.3383 12.649 15.2671 12.8909 15.1876C14.8481 15.9398 16.8041 16.6944 18.7625 17.4431C19.964 17.9022 21.1667 18.3625 22.3777 18.798C22.721 18.9214 22.8735 19.0744 22.8711 19.4671C22.8521 22.1912 22.8568 24.9164 22.8664 27.6405C22.8676 28.032 22.8557 28.2231 22.3562 28.0415C14.9864 25.3685 7.6106 22.7144 0.237199 20.0532C0.190713 20.0366 0.157338 19.9856 0.118004 19.95V19.9488Z" fill="#BA0000"/>
<path d="M230.964 10.4253C226.933 11.9427 222.903 13.4614 218.871 14.9776C218.65 15.0607 218.423 15.1224 218.198 15.1948C216.035 14.3654 213.872 13.5349 211.707 12.7092C210.726 12.3343 209.749 11.9463 208.752 11.6141C208.308 11.4658 208.211 11.2285 208.215 10.7931C208.236 8.1651 208.225 5.53595 208.225 2.90679C208.225 2.41086 208.455 2.24516 208.913 2.40967C214.542 4.44442 220.172 6.47442 225.798 8.51628C227.524 9.14273 229.275 9.70035 230.964 10.4265V10.4253Z" fill="#BA0000"/>
</g>
<defs>
<clipPath id="clip0_2002_177">
<rect width="231" height="28" fill="white"/>
</clipPath>
</defs>
</svg>
