<svg width="60" height="60" viewBox="0 0 60 60" fill="none" xmlns="http://www.w3.org/2000/svg">
<rect width="60" height="60" fill="white"/>
<path d="M30.9544 20.6275C30.7223 20.6275 30.4997 20.7196 30.3356 20.8837C30.1715 21.0478 30.0794 21.2704 30.0794 21.5025C30.0794 21.7345 30.1715 21.9571 30.3356 22.1212C30.4997 22.2853 30.7223 22.3775 30.9544 22.3775H30.9841C32.5801 22.4912 33.7421 23.0232 34.5559 23.8965C35.3906 24.796 35.8229 25.9142 35.7896 27.2967C35.7843 27.5288 35.8713 27.7535 36.0317 27.9213C36.192 28.0892 36.4124 28.1865 36.6445 28.1918C36.8765 28.1972 37.1012 28.1101 37.2691 27.9498C37.437 27.7895 37.5343 27.569 37.5396 27.337C37.5816 25.5222 36.9971 23.956 35.8386 22.7065V22.703C34.6539 21.4325 33.0281 20.7605 31.0716 20.6292L31.0419 20.6257L30.9544 20.6275Z" fill="#2364D0"/>
<path d="M30.9211 23.5584C30.804 23.548 30.6861 23.5614 30.5742 23.5977C30.4624 23.6339 30.3591 23.6924 30.2703 23.7695C30.1816 23.8466 30.1093 23.9408 30.0578 24.0464C30.0062 24.1521 29.9765 24.2671 29.9704 24.3844C29.9643 24.5018 29.9819 24.6193 30.0222 24.7297C30.0624 24.8401 30.1246 24.9413 30.2048 25.0273C30.285 25.1132 30.3818 25.182 30.4892 25.2297C30.5967 25.2774 30.7126 25.303 30.8301 25.3049C31.5616 25.3434 32.0289 25.5639 32.3229 25.8596C32.6186 26.1571 32.8391 26.6349 32.8794 27.3821C32.8816 27.4995 32.9074 27.6153 32.9553 27.7226C33.0031 27.8298 33.0721 27.9263 33.1581 28.0063C33.244 28.0863 33.3452 28.1482 33.4556 28.1883C33.566 28.2284 33.6834 28.2458 33.8006 28.2396C33.9179 28.2334 34.0328 28.2036 34.1383 28.1521C34.2438 28.1005 34.3379 28.0283 34.4149 27.9396C34.4919 27.8509 34.5503 27.7476 34.5865 27.6359C34.6228 27.5242 34.6362 27.4064 34.6259 27.2894C34.5699 26.2394 34.2409 25.3119 33.5671 24.6294C32.8899 23.9469 31.9676 23.6144 30.9211 23.5584Z" fill="#2364D0"/>
<path d="M22.9391 19.8536C22.6138 19.8059 22.2821 19.8714 21.9993 20.0391H21.9748C21.3186 20.4241 20.7271 20.9088 20.2231 21.4793C19.8031 21.9641 19.5756 22.4541 19.5161 22.9266C19.4811 23.2066 19.5056 23.4901 19.5878 23.7578L19.6193 23.7753C20.0918 25.1631 20.7078 26.4983 21.4603 27.7548C22.4311 29.5194 23.625 31.1516 25.0128 32.6111L25.0548 32.6706L25.1213 32.7196L25.1616 32.7668L25.2106 32.8088C26.6753 34.2006 28.3113 35.4003 30.0791 36.3788C32.1003 37.4796 33.3271 37.9993 34.0638 38.2163V38.2268C34.2791 38.2933 34.4751 38.3231 34.6728 38.3231C35.3006 38.278 35.8949 38.0228 36.3598 37.5986C36.9286 37.0946 37.4098 36.5013 37.7843 35.8416V35.8293C38.1361 35.1643 38.0171 34.5378 37.5096 34.1126C36.4911 33.2208 35.3887 32.4296 34.2178 31.7501C33.4338 31.3248 32.6376 31.5821 32.3156 32.0126L31.6278 32.8806C31.2743 33.3111 30.6338 33.2516 30.6338 33.2516L30.6163 33.2621C25.8371 32.0423 24.5613 27.2036 24.5613 27.2036C24.5613 27.2036 24.5018 26.5456 24.9446 26.2096L25.8056 25.5166C26.2186 25.1806 26.5056 24.3861 26.0628 23.6021C25.3848 22.4321 24.5954 21.3303 23.7056 20.3121C23.5109 20.073 23.2383 19.91 22.9356 19.8518M31.0153 17.7501C30.7833 17.7501 30.5607 17.8422 30.3966 18.0063C30.2325 18.1704 30.1403 18.393 30.1403 18.6251C30.1403 18.8571 30.2325 19.0797 30.3966 19.2438C30.5607 19.4079 30.7833 19.5001 31.0153 19.5001C33.2273 19.5001 35.0648 20.2228 36.5191 21.6088C37.2663 22.3666 37.8491 23.2643 38.2306 24.2478C38.6138 25.2331 38.7888 26.2848 38.7433 27.3383C38.7336 27.5704 38.8164 27.7968 38.9736 27.9678C39.1308 28.1388 39.3495 28.2403 39.5816 28.2501C39.8137 28.2598 40.0401 28.177 40.2111 28.0198C40.3821 27.8626 40.4836 27.6439 40.4933 27.4118C40.5455 26.116 40.3305 24.8234 39.8616 23.6143C39.3905 22.3991 38.6731 21.2944 37.7546 20.3698L37.7371 20.3523C35.9328 18.6286 33.6508 17.7501 31.0153 17.7501Z" fill="#2364D0"/>
<path fill-rule="evenodd" clip-rule="evenodd" d="M21.3679 13.1719C26.9365 11.9271 32.7112 11.9271 38.2799 13.1719L38.8731 13.3031C40.5005 13.6679 41.9951 14.4764 43.1912 15.6387C44.3872 16.8011 45.238 18.272 45.6491 19.8884C47.0639 25.4582 47.0639 31.2935 45.6491 36.8634C45.238 38.4797 44.3872 39.9506 43.1912 41.113C41.9951 42.2753 40.5005 43.0838 38.8731 43.4486L38.2781 43.5799C34.7902 44.3587 31.2116 44.6525 27.6434 44.4531L23.0006 48.6076C22.8256 48.7643 22.6117 48.8712 22.3813 48.917C22.1508 48.9629 21.9123 48.946 21.6906 48.8683C21.4689 48.7905 21.2722 48.6546 21.1209 48.4749C20.9696 48.2951 20.8694 48.0781 20.8306 47.8464L20.0624 43.2579C18.5896 42.7987 17.259 41.9699 16.1975 40.8505C15.136 39.7311 14.379 38.3584 13.9986 36.8634C12.5838 31.2935 12.5838 25.4582 13.9986 19.8884C14.4098 18.272 15.2605 16.8011 16.4566 15.6387C17.6526 14.4764 19.1472 13.6679 20.7746 13.3031L21.3679 13.1719ZM37.7076 15.7321C32.5158 14.5715 27.1319 14.5715 21.9401 15.7321L21.3451 15.8651C20.1918 16.1244 19.1327 16.6979 18.2852 17.5219C17.4377 18.346 16.8347 19.3885 16.5431 20.5341C15.2359 25.6802 15.2359 31.0715 16.5431 36.2176C16.8349 37.3634 17.4381 38.4061 18.2859 39.2302C19.1338 40.0543 20.1932 40.6276 21.3469 40.8866L21.5044 40.9216C21.7591 40.9786 21.9912 41.1103 22.1707 41.2998C22.3503 41.4893 22.4692 41.7281 22.5124 41.9856L23.0269 45.0621L26.3029 42.1309C26.4337 42.0135 26.5868 41.9235 26.753 41.8664C26.9192 41.8093 27.0953 41.7861 27.2706 41.7984C30.769 42.0454 34.2846 41.783 37.7076 41.0196L38.3009 40.8866C39.4545 40.6276 40.5139 40.0543 41.3618 39.2302C42.2097 38.4061 42.8129 37.3634 43.1046 36.2176C44.4101 31.0726 44.4101 25.6809 43.1046 20.5341C42.8129 19.3883 42.2097 18.3456 41.3618 17.5215C40.5139 16.6974 39.4545 16.1241 38.3009 15.8651L37.7076 15.7321Z" fill="#2364D0"/>
</svg>
