<svg width="60" height="60" viewBox="0 0 60 60" fill="none" xmlns="http://www.w3.org/2000/svg">
<rect width="60" height="60" fill="white"/>
<g clip-path="url(#clip0_1_3141)">
<path d="M25 26.6667C25 26.8877 25.0878 27.0997 25.2441 27.2559C25.4004 27.4122 25.6123 27.5 25.8333 27.5C26.0543 27.5 26.2663 27.4122 26.4226 27.2559C26.5789 27.0997 26.6667 26.8877 26.6667 26.6667V25.8333V25C26.6667 24.779 26.5789 24.567 26.4226 24.4108C26.2663 24.2545 26.0543 24.1667 25.8333 24.1667C25.6123 24.1667 25.4004 24.2545 25.2441 24.4108C25.0878 24.567 25 24.779 25 25V26.6667Z" fill="#2364D0"/>
<path d="M33.3333 35H35C35.221 35 35.433 34.9122 35.5893 34.7559C35.7455 34.5997 35.8333 34.3877 35.8333 34.1667C35.8333 33.9457 35.7455 33.7337 35.5893 33.5774C35.433 33.4211 35.221 33.3334 35 33.3334H33.3333C33.1123 33.3334 32.9004 33.4211 32.7441 33.5774C32.5878 33.7337 32.5 33.9457 32.5 34.1667C32.5 34.3877 32.5878 34.5997 32.7441 34.7559C32.9004 34.9122 33.1123 35 33.3333 35Z" fill="#2364D0"/>
<path d="M25 26.6667C25 26.8877 25.0878 27.0997 25.2441 27.2559C25.4004 27.4122 25.6123 27.5 25.8333 27.5C26.0543 27.5 26.2663 27.4122 26.4226 27.2559C26.5789 27.0997 26.6667 26.8877 26.6667 26.6667V25.8333V25C26.6667 24.779 26.5789 24.567 26.4226 24.4108C26.2663 24.2545 26.0543 24.1667 25.8333 24.1667C25.6123 24.1667 25.4004 24.2545 25.2441 24.4108C25.0878 24.567 25 24.779 25 25V26.6667ZM25 26.6667C25 28.8768 25.878 30.9964 27.4408 32.5592C29.0036 34.122 31.1232 35 33.3333 35M33.3333 35H35C35.221 35 35.433 34.9122 35.5893 34.7559C35.7455 34.5997 35.8333 34.3877 35.8333 34.1667C35.8333 33.9457 35.7455 33.7337 35.5893 33.5774C35.433 33.4211 35.221 33.3334 35 33.3334H33.3333C33.1123 33.3334 32.9004 33.4211 32.7441 33.5774C32.5878 33.7337 32.5 33.9457 32.5 34.1667C32.5 34.3877 32.5878 34.5997 32.7441 34.7559C32.9004 34.9122 33.1123 35 33.3333 35ZM15 45L17.75 38.6667C15.6461 35.6801 14.7044 32.0284 15.1017 28.3969C15.499 24.7653 17.208 21.4036 19.9078 18.9425C22.6077 16.4815 26.1129 15.0904 29.7656 15.0302C33.4184 14.97 36.9675 16.2449 39.747 18.6156C42.5265 20.9864 44.3452 24.29 44.862 27.9065C45.3787 31.5229 44.5579 35.2037 42.5535 38.258C40.5492 41.3122 37.4991 43.53 33.9757 44.4952C30.4522 45.4603 26.6977 45.1065 23.4167 43.5L15 45Z" stroke="#2364D0" stroke-width="3" stroke-linecap="round" stroke-linejoin="round"/>
</g>
<defs>
<clipPath id="clip0_1_3141">
<rect width="40" height="40" fill="white" transform="translate(10 10)"/>
</clipPath>
</defs>
</svg>
